<?xml version="1.0" standalone="no"?>
<!DOCTYPE svg PUBLIC "-//W3C//DTD SVG 20010904//EN"
 "http://www.w3.org/TR/2001/REC-SVG-20010904/DTD/svg10.dtd">
<svg version="1.0" xmlns="http://www.w3.org/2000/svg"
 width="64.000000pt" height="64.000000pt" viewBox="0 0 64.000000 64.000000"
 preserveAspectRatio="xMidYMid meet">

<g transform="translate(0.000000,64.000000) scale(0.100000,-0.100000)"
fill="#000000" stroke="none">
<path d="M263 496 c-22 -10 -32 -36 -15 -36 4 0 13 -14 20 -32 9 -25 9 -34 -1
-40 -7 -4 10 -8 38 -9 28 0 67 -2 88 -3 41 -3 44 -1 22 20 -8 9 -15 11 -15 5
0 -6 -7 -11 -16 -11 -8 0 -12 5 -9 10 3 6 1 10 -4 10 -6 0 -11 7 -11 15 0 8 6
15 14 15 22 0 28 16 11 30 -13 11 -14 10 -10 -2 10 -25 -23 -30 -39 -6 l-15
22 -10 -25 c-5 -13 -10 -18 -10 -11 -1 6 -6 12 -11 12 -7 0 -7 -7 1 -21 9 -17
8 -20 -3 -17 -7 3 -14 17 -16 33 -3 22 0 26 12 22 10 -4 16 -1 16 8 0 20 -11
23 -37 11z m57 -96 c0 -5 -4 -10 -10 -10 -5 0 -10 5 -10 10 0 6 5 10 10 10 6
0 10 -4 10 -10z m40 0 c0 -5 -4 -10 -10 -10 -5 0 -10 5 -10 10 0 6 5 10 10 10
6 0 10 -4 10 -10z"/>
<path d="M411 438 c-14 -23 -14 -23 8 -4 22 20 25 26 13 26 -4 0 -13 -10 -21
-22z"/>
<path d="M297 340 c3 -11 9 -20 13 -20 5 0 6 9 3 20 -3 11 -9 20 -13 20 -5 0
-6 -9 -3 -20z"/>
<path d="M331 343 c-1 -18 4 -23 23 -23 16 0 23 5 22 15 -3 21 -16 31 -16 12
0 -22 -17 -22 -23 1 -4 13 -5 11 -6 -5z"/>
<path d="M286 292 c-3 -5 1 -9 9 -9 8 0 15 4 15 9 0 4 -4 8 -9 8 -6 0 -12 -4
-15 -8z"/>
<path d="M376 292 c-3 -5 1 -9 9 -9 8 0 12 4 9 9 -3 4 -7 8 -9 8 -2 0 -6 -4
-9 -8z"/>
<path d="M288 263 c7 -3 16 -2 19 1 4 3 -2 6 -13 5 -11 0 -14 -3 -6 -6z"/>
<path d="M378 263 c7 -3 16 -2 19 1 4 3 -2 6 -13 5 -11 0 -14 -3 -6 -6z"/>
</g>
</svg>
